<svg id="visual" viewBox="0 0 1920 1080" width="1920" height="1080" xmlns="http://www.w3.org/2000/svg" xmlns:xlink="http://www.w3.org/1999/xlink" version="1.1"><rect x="0" y="0" width="1920" height="1080" fill="#001220"></rect><defs><linearGradient id="grad1_0" x1="43.8%" y1="0%" x2="100%" y2="100%"><stop offset="14.444444444444446%" stop-color="#324dac" stop-opacity="1"></stop><stop offset="85.55555555555554%" stop-color="#324dac" stop-opacity="1"></stop></linearGradient></defs><defs><linearGradient id="grad1_1" x1="43.8%" y1="0%" x2="100%" y2="100%"><stop offset="14.444444444444446%" stop-color="#324dac" stop-opacity="1"></stop><stop offset="85.55555555555554%" stop-color="#001220" stop-opacity="1"></stop></linearGradient></defs><defs><linearGradient id="grad2_0" x1="0%" y1="0%" x2="56.3%" y2="100%"><stop offset="14.444444444444446%" stop-color="#324dac" stop-opacity="1"></stop><stop offset="85.55555555555554%" stop-color="#324dac" stop-opacity="1"></stop></linearGradient></defs><defs><linearGradient id="grad2_1" x1="0%" y1="0%" x2="56.3%" y2="100%"><stop offset="14.444444444444446%" stop-color="#001220" stop-opacity="1"></stop><stop offset="85.55555555555554%" stop-color="#324dac" stop-opacity="1"></stop></linearGradient></defs><g transform="translate(1920, 0)"><path d="M0 594C-70.3 599.9 -140.6 605.8 -183.6 564.9C-226.5 524.1 -242.1 436.5 -282.7 389.1C-323.4 341.8 -389.1 334.8 -410.2 298C-431.2 261.2 -407.6 194.6 -430.8 140C-454 85.4 -524 42.7 -594 0L0 0Z" fill="#003264"></path><path d="M0 297C-35.2 299.9 -70.3 302.9 -91.8 282.5C-113.2 262 -121 218.2 -141.4 194.6C-161.7 170.9 -194.6 167.4 -205.1 149C-215.6 130.6 -203.8 97.3 -215.4 70C-227 42.7 -262 21.3 -297 0L0 0Z" fill="#324dac"></path></g><g transform="translate(0, 1080)"><path d="M0 -594C65.4 -594.7 130.8 -595.3 183.6 -564.9C236.3 -534.5 276.5 -473.1 302.1 -415.8C327.7 -358.6 338.7 -305.5 364.1 -264.5C389.4 -223.5 429.1 -194.7 469.8 -152.7C510.5 -110.6 552.3 -55.3 594 0L0 0Z" fill="#003264"></path><path d="M0 -297C32.7 -297.3 65.4 -297.7 91.8 -282.5C118.2 -267.3 138.3 -236.6 151.1 -207.9C163.9 -179.3 169.4 -152.7 182 -132.3C194.7 -111.8 214.6 -97.4 234.9 -76.3C255.3 -55.3 276.1 -27.6 297 0L0 0Z" fill="#324dac"></path></g></svg>